<svg xmlns="http://www.w3.org/2000/svg" viewBox="0 0 15 27"><path fill-rule="evenodd" fill="#414594" d="M1.313 14.191h2.865v11.43c0 .226.189.408.422.408h4.858c.232 0 .42-.182.42-.408V14.245h3.294a.416.416 0 0 0 .418-.361l.501-4.208a.402.402 0 0 0-.105-.318.427.427 0 0 0-.314-.137H9.879V6.583c0-.795.442-1.198 1.312-1.198h2.481a.415.415 0 0 0 .421-.409V1.115a.415.415 0 0 0-.421-.409h-3.418a3.732 3.732 0 0 0-.157-.003c-.592 0-2.654.113-4.282 1.565C4.01 3.877 4.261 5.803 4.321 6.137v3.084H1.313a.415.415 0 0 0-.421.409v4.153c0 .226.189.408.421.408z"/></svg>
