<svg xmlns="http://www.w3.org/2000/svg" viewBox="0 0 16 26"><path fill-rule="evenodd" fill="#EF8116" d="M14.846 15.517c-.758.804-1.67 1.385-2.682 1.791-.958.385-2.006.577-3.044.705.157.177.231.264.329.366 1.409 1.463 2.824 2.921 4.229 4.389.479.501.578 1.121.314 1.703-.287.636-.933 1.054-1.564 1.01-.401-.029-.714-.235-.992-.525-1.063-1.106-2.147-2.192-3.188-3.319-.303-.328-.449-.265-.717.019a215.708 215.708 0 0 1-3.251 3.375c-.492.5-1.075.59-1.646.305-.605-.304-.99-.943-.96-1.585.021-.434.227-.766.515-1.064 1.395-1.439 2.785-2.883 4.177-4.326.093-.095.178-.196.313-.345-1.898-.204-3.608-.688-5.073-1.872-.182-.147-.369-.289-.536-.454-.641-.637-.705-1.365-.198-2.116.434-.643 1.163-.816 1.921-.446a3.1 3.1 0 0 1 .418.256c2.73 1.94 6.479 1.993 9.22.088.271-.215.561-.39.898-.48.654-.174 1.263.075 1.615.666.4.675.395 1.334-.098 1.859zm-7.012-2.515c-3.385-.012-6.16-2.914-6.14-6.418C1.713 3.04 4.491.185 7.909.195c3.424.009 6.173 2.906 6.156 6.486-.018 3.498-2.812 6.332-6.231 6.321zm.05-9.537C6.19 3.463 4.838 4.874 4.851 6.63c.012 1.733 1.364 3.109 3.048 3.103 1.68-.006 3.017-1.401 3.012-3.141-.006-1.74-1.347-3.125-3.027-3.127z"/></svg>