<svg xmlns="http://www.w3.org/2000/svg" viewBox="0 0 23 18"><path fill-rule="evenodd" fill="#3AAAE3" d="M22.139 2.089a8.49 8.49 0 0 1-1.064.385c.43-.482.758-1.05.958-1.671a.35.35 0 0 0-.117-.383.355.355 0 0 0-.401-.027 8.403 8.403 0 0 1-2.476.97A4.774 4.774 0 0 0 15.732.027c-2.605 0-4.724 2.102-4.724 4.686 0 .204.014.405.039.604A12.12 12.12 0 0 1 2.746.95a.358.358 0 0 0-.582.045 4.661 4.661 0 0 0 .485 5.394 4.162 4.162 0 0 1-.633-.281.358.358 0 0 0-.349.002.35.35 0 0 0-.177.298c-.002.021-.002.041-.002.063 0 1.685.915 3.202 2.313 4.028a3.648 3.648 0 0 1-.359-.051.358.358 0 0 0-.333.112.35.35 0 0 0-.072.341 4.706 4.706 0 0 0 3.461 3.141 8.408 8.408 0 0 1-4.467 1.264c-.335 0-.671-.019-1.001-.057a.353.353 0 0 0-.375.23.35.35 0 0 0 .142.415 12.816 12.816 0 0 0 6.888 2.003c4.81 0 7.819-2.249 9.495-4.137 2.092-2.353 3.291-5.467 3.291-8.545 0-.129-.002-.258-.006-.387a9.165 9.165 0 0 0 2.114-2.221.35.35 0 0 0-.024-.422.357.357 0 0 0-.416-.096z"/></svg>
